<mxfile host="Electron" agent="Mozilla/5.0 (Windows NT 10.0; Win64; x64) AppleWebKit/537.36 (KHTML, like Gecko) draw.io/26.2.15 Chrome/134.0.6998.205 Electron/35.2.1 Safari/537.36" version="26.2.15">
  <diagram name="Page-1" id="y6Q5-micziLYH-kVz3wQ">
    <mxGraphModel dx="856" dy="521" grid="1" gridSize="10" guides="1" tooltips="1" connect="1" arrows="1" fold="1" page="1" pageScale="1" pageWidth="850" pageHeight="1100" math="0" shadow="0">
      <root>
        <mxCell id="0" />
        <mxCell id="1" parent="0" />
        <mxCell id="5WR9VqIV-ecDixhPeOb_-3" style="edgeStyle=orthogonalEdgeStyle;rounded=0;orthogonalLoop=1;jettySize=auto;html=1;entryX=0.5;entryY=0;entryDx=0;entryDy=0;" edge="1" parent="1" source="5WR9VqIV-ecDixhPeOb_-1" target="5WR9VqIV-ecDixhPeOb_-2">
          <mxGeometry relative="1" as="geometry" />
        </mxCell>
        <mxCell id="5WR9VqIV-ecDixhPeOb_-1" value="Start" style="ellipse;whiteSpace=wrap;html=1;" vertex="1" parent="1">
          <mxGeometry x="330" y="10" width="100" height="50" as="geometry" />
        </mxCell>
        <mxCell id="5WR9VqIV-ecDixhPeOb_-5" style="edgeStyle=orthogonalEdgeStyle;rounded=0;orthogonalLoop=1;jettySize=auto;html=1;exitX=0.5;exitY=1;exitDx=0;exitDy=0;entryX=0.5;entryY=0;entryDx=0;entryDy=0;" edge="1" parent="1" source="5WR9VqIV-ecDixhPeOb_-2" target="5WR9VqIV-ecDixhPeOb_-4">
          <mxGeometry relative="1" as="geometry" />
        </mxCell>
        <mxCell id="5WR9VqIV-ecDixhPeOb_-2" value="Display Report" style="rounded=0;whiteSpace=wrap;html=1;" vertex="1" parent="1">
          <mxGeometry x="320" y="90" width="120" height="60" as="geometry" />
        </mxCell>
        <mxCell id="5WR9VqIV-ecDixhPeOb_-8" style="edgeStyle=orthogonalEdgeStyle;rounded=0;orthogonalLoop=1;jettySize=auto;html=1;exitX=1;exitY=0.5;exitDx=0;exitDy=0;" edge="1" parent="1" source="5WR9VqIV-ecDixhPeOb_-4">
          <mxGeometry relative="1" as="geometry">
            <mxPoint x="540" y="235" as="targetPoint" />
          </mxGeometry>
        </mxCell>
        <mxCell id="5WR9VqIV-ecDixhPeOb_-63" value="Selected&lt;div&gt;data&lt;/div&gt;" style="edgeLabel;html=1;align=center;verticalAlign=middle;resizable=0;points=[];" vertex="1" connectable="0" parent="5WR9VqIV-ecDixhPeOb_-8">
          <mxGeometry x="-0.1788" y="2" relative="1" as="geometry">
            <mxPoint as="offset" />
          </mxGeometry>
        </mxCell>
        <mxCell id="5WR9VqIV-ecDixhPeOb_-4" value="Select EmployeeName or ID,Date or Department" style="rhombus;whiteSpace=wrap;html=1;" vertex="1" parent="1">
          <mxGeometry x="295" y="190" width="170" height="90" as="geometry" />
        </mxCell>
        <mxCell id="5WR9VqIV-ecDixhPeOb_-37" style="edgeStyle=orthogonalEdgeStyle;rounded=0;orthogonalLoop=1;jettySize=auto;html=1;exitX=0.5;exitY=1;exitDx=0;exitDy=0;" edge="1" parent="1">
          <mxGeometry relative="1" as="geometry">
            <mxPoint x="601" y="300" as="targetPoint" />
            <mxPoint x="601" y="260" as="sourcePoint" />
          </mxGeometry>
        </mxCell>
        <mxCell id="5WR9VqIV-ecDixhPeOb_-9" value="Selected date/department" style="shape=parallelogram;perimeter=parallelogramPerimeter;whiteSpace=wrap;html=1;fixedSize=1;" vertex="1" parent="1">
          <mxGeometry x="530" y="210" width="160" height="50" as="geometry" />
        </mxCell>
        <mxCell id="5WR9VqIV-ecDixhPeOb_-27" value="" style="edgeStyle=orthogonalEdgeStyle;rounded=0;orthogonalLoop=1;jettySize=auto;html=1;" edge="1" parent="1" source="5WR9VqIV-ecDixhPeOb_-10" target="5WR9VqIV-ecDixhPeOb_-26">
          <mxGeometry relative="1" as="geometry">
            <Array as="points">
              <mxPoint x="603" y="450" />
              <mxPoint x="603" y="450" />
            </Array>
          </mxGeometry>
        </mxCell>
        <mxCell id="5WR9VqIV-ecDixhPeOb_-28" value="Yes" style="edgeLabel;html=1;align=center;verticalAlign=middle;resizable=0;points=[];" vertex="1" connectable="0" parent="5WR9VqIV-ecDixhPeOb_-27">
          <mxGeometry x="-0.075" y="-2" relative="1" as="geometry">
            <mxPoint as="offset" />
          </mxGeometry>
        </mxCell>
        <mxCell id="5WR9VqIV-ecDixhPeOb_-10" value="Is Data found?" style="rhombus;whiteSpace=wrap;html=1;" vertex="1" parent="1">
          <mxGeometry x="520" y="300" width="165" height="95" as="geometry" />
        </mxCell>
        <mxCell id="5WR9VqIV-ecDixhPeOb_-44" style="edgeStyle=orthogonalEdgeStyle;rounded=0;orthogonalLoop=1;jettySize=auto;html=1;exitX=0.5;exitY=1;exitDx=0;exitDy=0;entryX=0.5;entryY=0;entryDx=0;entryDy=0;" edge="1" parent="1" source="5WR9VqIV-ecDixhPeOb_-20" target="5WR9VqIV-ecDixhPeOb_-43">
          <mxGeometry relative="1" as="geometry" />
        </mxCell>
        <mxCell id="5WR9VqIV-ecDixhPeOb_-20" value="Display Report" style="shape=parallelogram;perimeter=parallelogramPerimeter;whiteSpace=wrap;html=1;fixedSize=1;" vertex="1" parent="1">
          <mxGeometry x="547" y="590" width="126" height="60" as="geometry" />
        </mxCell>
        <mxCell id="5WR9VqIV-ecDixhPeOb_-29" style="edgeStyle=orthogonalEdgeStyle;rounded=0;orthogonalLoop=1;jettySize=auto;html=1;exitX=0.5;exitY=1;exitDx=0;exitDy=0;entryX=0.5;entryY=0;entryDx=0;entryDy=0;" edge="1" parent="1" source="5WR9VqIV-ecDixhPeOb_-26" target="5WR9VqIV-ecDixhPeOb_-20">
          <mxGeometry relative="1" as="geometry">
            <mxPoint x="610" y="570" as="targetPoint" />
          </mxGeometry>
        </mxCell>
        <mxCell id="5WR9VqIV-ecDixhPeOb_-26" value="Calculate total hours worked, attendance status" style="rounded=0;whiteSpace=wrap;html=1;" vertex="1" parent="1">
          <mxGeometry x="550" y="470" width="120" height="60" as="geometry" />
        </mxCell>
        <mxCell id="5WR9VqIV-ecDixhPeOb_-30" value="" style="endArrow=classic;html=1;rounded=0;" edge="1" parent="1">
          <mxGeometry width="50" height="50" relative="1" as="geometry">
            <mxPoint x="379.5" y="280" as="sourcePoint" />
            <mxPoint x="380" y="320" as="targetPoint" />
          </mxGeometry>
        </mxCell>
        <mxCell id="5WR9VqIV-ecDixhPeOb_-59" value="Searched by EmployeeName or ID" style="edgeLabel;html=1;align=center;verticalAlign=middle;resizable=0;points=[];" vertex="1" connectable="0" parent="5WR9VqIV-ecDixhPeOb_-30">
          <mxGeometry x="-0.0998" relative="1" as="geometry">
            <mxPoint as="offset" />
          </mxGeometry>
        </mxCell>
        <mxCell id="5WR9VqIV-ecDixhPeOb_-34" style="edgeStyle=orthogonalEdgeStyle;rounded=0;orthogonalLoop=1;jettySize=auto;html=1;exitX=1;exitY=0.5;exitDx=0;exitDy=0;" edge="1" parent="1" source="5WR9VqIV-ecDixhPeOb_-31">
          <mxGeometry relative="1" as="geometry">
            <mxPoint x="520" y="350" as="targetPoint" />
          </mxGeometry>
        </mxCell>
        <mxCell id="5WR9VqIV-ecDixhPeOb_-31" value="Enter EmployeeName or ID" style="shape=parallelogram;perimeter=parallelogramPerimeter;whiteSpace=wrap;html=1;fixedSize=1;" vertex="1" parent="1">
          <mxGeometry x="285" y="320" width="180" height="60" as="geometry" />
        </mxCell>
        <mxCell id="5WR9VqIV-ecDixhPeOb_-40" value="" style="endArrow=classic;html=1;rounded=0;" edge="1" parent="1">
          <mxGeometry width="50" height="50" relative="1" as="geometry">
            <mxPoint x="684" y="348" as="sourcePoint" />
            <mxPoint x="759" y="348" as="targetPoint" />
          </mxGeometry>
        </mxCell>
        <mxCell id="5WR9VqIV-ecDixhPeOb_-41" value="No" style="edgeLabel;html=1;align=center;verticalAlign=middle;resizable=0;points=[];" vertex="1" connectable="0" parent="5WR9VqIV-ecDixhPeOb_-40">
          <mxGeometry x="-0.0933" y="-2" relative="1" as="geometry">
            <mxPoint as="offset" />
          </mxGeometry>
        </mxCell>
        <mxCell id="5WR9VqIV-ecDixhPeOb_-42" value="Display Message:Data is not found" style="shape=parallelogram;perimeter=parallelogramPerimeter;whiteSpace=wrap;html=1;fixedSize=1;" vertex="1" parent="1">
          <mxGeometry x="750" y="320" width="220" height="60" as="geometry" />
        </mxCell>
        <mxCell id="5WR9VqIV-ecDixhPeOb_-43" value="Choose to print report" style="rhombus;whiteSpace=wrap;html=1;" vertex="1" parent="1">
          <mxGeometry x="540" y="690" width="140" height="80" as="geometry" />
        </mxCell>
        <mxCell id="5WR9VqIV-ecDixhPeOb_-45" value="" style="endArrow=classic;html=1;rounded=0;" edge="1" parent="1">
          <mxGeometry width="50" height="50" relative="1" as="geometry">
            <mxPoint x="609.5" y="770" as="sourcePoint" />
            <mxPoint x="610" y="820" as="targetPoint" />
          </mxGeometry>
        </mxCell>
        <mxCell id="5WR9VqIV-ecDixhPeOb_-46" value="Yes" style="edgeLabel;html=1;align=center;verticalAlign=middle;resizable=0;points=[];" vertex="1" connectable="0" parent="5WR9VqIV-ecDixhPeOb_-45">
          <mxGeometry x="-0.3599" relative="1" as="geometry">
            <mxPoint as="offset" />
          </mxGeometry>
        </mxCell>
        <mxCell id="5WR9VqIV-ecDixhPeOb_-47" value="Send to printer" style="rounded=0;whiteSpace=wrap;html=1;" vertex="1" parent="1">
          <mxGeometry x="550" y="820" width="120" height="60" as="geometry" />
        </mxCell>
        <mxCell id="5WR9VqIV-ecDixhPeOb_-49" value="" style="endArrow=classic;html=1;rounded=0;" edge="1" parent="1">
          <mxGeometry width="50" height="50" relative="1" as="geometry">
            <mxPoint x="609.5" y="880" as="sourcePoint" />
            <mxPoint x="609.5" y="922" as="targetPoint" />
          </mxGeometry>
        </mxCell>
        <mxCell id="5WR9VqIV-ecDixhPeOb_-50" value="Hard Copy Printed" style="rounded=0;whiteSpace=wrap;html=1;" vertex="1" parent="1">
          <mxGeometry x="548" y="921" width="120" height="60" as="geometry" />
        </mxCell>
        <mxCell id="5WR9VqIV-ecDixhPeOb_-54" value="" style="endArrow=classic;html=1;rounded=0;" edge="1" parent="1">
          <mxGeometry width="50" height="50" relative="1" as="geometry">
            <mxPoint x="680" y="730" as="sourcePoint" />
            <mxPoint x="790" y="1040" as="targetPoint" />
            <Array as="points">
              <mxPoint x="790" y="730" />
              <mxPoint x="790" y="970" />
            </Array>
          </mxGeometry>
        </mxCell>
        <mxCell id="5WR9VqIV-ecDixhPeOb_-55" value="No" style="edgeLabel;html=1;align=center;verticalAlign=middle;resizable=0;points=[];" vertex="1" connectable="0" parent="5WR9VqIV-ecDixhPeOb_-54">
          <mxGeometry x="-0.7619" y="-1" relative="1" as="geometry">
            <mxPoint as="offset" />
          </mxGeometry>
        </mxCell>
        <mxCell id="5WR9VqIV-ecDixhPeOb_-56" value="End" style="ellipse;whiteSpace=wrap;html=1;" vertex="1" parent="1">
          <mxGeometry x="770" y="1036" width="90" height="40" as="geometry" />
        </mxCell>
        <mxCell id="5WR9VqIV-ecDixhPeOb_-58" value="" style="endArrow=classic;html=1;rounded=0;entryX=1;entryY=0.5;entryDx=0;entryDy=0;exitX=0.782;exitY=1.017;exitDx=0;exitDy=0;exitPerimeter=0;" edge="1" parent="1" source="5WR9VqIV-ecDixhPeOb_-42" target="5WR9VqIV-ecDixhPeOb_-56">
          <mxGeometry width="50" height="50" relative="1" as="geometry">
            <mxPoint x="1030" y="370" as="sourcePoint" />
            <mxPoint x="1000" y="890" as="targetPoint" />
            <Array as="points">
              <mxPoint x="920" y="1050" />
            </Array>
          </mxGeometry>
        </mxCell>
        <mxCell id="5WR9VqIV-ecDixhPeOb_-62" value="" style="endArrow=classic;html=1;rounded=0;entryX=0;entryY=0.5;entryDx=0;entryDy=0;exitX=0.45;exitY=1.05;exitDx=0;exitDy=0;exitPerimeter=0;" edge="1" parent="1">
          <mxGeometry width="50" height="50" relative="1" as="geometry">
            <mxPoint x="602" y="981" as="sourcePoint" />
            <mxPoint x="770" y="1053" as="targetPoint" />
            <Array as="points">
              <mxPoint x="600" y="1057" />
            </Array>
          </mxGeometry>
        </mxCell>
      </root>
    </mxGraphModel>
  </diagram>
</mxfile>
